<svg id="Layer_1" data-name="Layer 1" xmlns="http://www.w3.org/2000/svg" viewBox="0 0 347.91 204.59"><defs><style>.cls-1{font-size:88px;font-family:Montserrat-Regular, Montserrat;}.cls-1,.cls-6{fill:#fff;}.cls-2{letter-spacing:0.15em;}.cls-3{letter-spacing:-0.01em;}.cls-4{letter-spacing:-0.01em;}.cls-5{fill:#231f20;}</style></defs><title>Codey</title><text class="cls-1" transform="translate(0.45 74.8) rotate(0.2)"><tspan class="cls-2">	</tspan><tspan class="cls-3" x="36" y="0">c</tspan><tspan x="84.75" y="0">od</tspan><tspan class="cls-4" x="199.59" y="0">e</tspan><tspan x="251.86" y="0">y </tspan><tspan class="cls-5"><tspan class="cls-2" x="0" y="105.6">	</tspan><tspan x="36" y="105.6" xml:space="preserve">   </tspan><tspan class="cls-6" x="105.17" y="105.6">&lt;/&gt;</tspan></tspan></text><text x="-39.05" y="-199.7"/><polygon class="cls-6" points="117.02 23.15 109.58 23.15 105.34 33.38 121.25 33.38 117.02 23.15"/><polygon class="cls-6" points="140.95 55.57 140.85 48.13 130.57 44.03 130.78 59.94 140.95 55.57"/><polygon class="cls-6" points="115.66 81.03 108.21 81.03 103.98 70.81 119.89 70.81 115.66 81.03"/><polygon class="cls-6" points="84.65 55.78 84.59 48.34 94.79 44.03 94.91 59.94 84.65 55.78"/><polygon class="cls-6" points="136.69 33.95 131.62 28.51 121.25 32.39 132.11 44.02 136.69 33.95"/><polygon class="cls-6" points="88.57 69.99 93.63 75.45 104 71.61 93.19 59.94 88.57 69.99"/><polygon class="cls-6" points="95.07 28.22 89.51 33.17 93.15 43.63 105.03 33.04 95.07 28.22"/><polygon class="cls-6" points="130.66 75.92 135.76 70.5 131.21 60.41 120.31 72 130.66 75.92"/></svg>